<mxfile host="app.diagrams.net" modified="2024-03-21T06:53:46.972Z" agent="Mozilla/5.0 (Windows NT 10.0; Win64; x64) AppleWebKit/537.36 (KHTML, like Gecko) Chrome/122.0.0.0 Safari/537.36 Edg/122.0.0.0" etag="riPE9b_lyqrEF6mEEqfr" version="24.0.7" type="device">
  <diagram name="Page-1" id="1I6FckEKc5TJYjvhtcQQ">
    <mxGraphModel dx="1386" dy="785" grid="1" gridSize="10" guides="1" tooltips="1" connect="1" arrows="1" fold="1" page="1" pageScale="1" pageWidth="850" pageHeight="1100" math="0" shadow="0">
      <root>
        <mxCell id="0" />
        <mxCell id="1" parent="0" />
        <mxCell id="zJ-vD3GsJtSzr9R6O9Sf-1" value="SWITCH" style="rounded=0;whiteSpace=wrap;html=1;" vertex="1" parent="1">
          <mxGeometry x="275" y="370" width="120" height="60" as="geometry" />
        </mxCell>
        <mxCell id="zJ-vD3GsJtSzr9R6O9Sf-3" value="PC!" style="whiteSpace=wrap;html=1;aspect=fixed;" vertex="1" parent="1">
          <mxGeometry x="70" y="500" width="80" height="80" as="geometry" />
        </mxCell>
        <mxCell id="zJ-vD3GsJtSzr9R6O9Sf-4" value="PC2" style="whiteSpace=wrap;html=1;aspect=fixed;" vertex="1" parent="1">
          <mxGeometry x="220" y="500" width="80" height="80" as="geometry" />
        </mxCell>
        <mxCell id="zJ-vD3GsJtSzr9R6O9Sf-5" value="PC3" style="whiteSpace=wrap;html=1;aspect=fixed;" vertex="1" parent="1">
          <mxGeometry x="335" y="500" width="80" height="80" as="geometry" />
        </mxCell>
        <mxCell id="zJ-vD3GsJtSzr9R6O9Sf-6" value="PC3!" style="whiteSpace=wrap;html=1;aspect=fixed;" vertex="1" parent="1">
          <mxGeometry x="430" y="500" width="80" height="80" as="geometry" />
        </mxCell>
        <mxCell id="zJ-vD3GsJtSzr9R6O9Sf-10" value="" style="endArrow=none;html=1;rounded=0;entryX=0.625;entryY=1.05;entryDx=0;entryDy=0;entryPerimeter=0;" edge="1" parent="1" target="zJ-vD3GsJtSzr9R6O9Sf-1">
          <mxGeometry width="50" height="50" relative="1" as="geometry">
            <mxPoint x="370" y="490" as="sourcePoint" />
            <mxPoint x="320" y="470" as="targetPoint" />
          </mxGeometry>
        </mxCell>
        <mxCell id="zJ-vD3GsJtSzr9R6O9Sf-11" value="" style="endArrow=none;html=1;rounded=0;entryX=0.95;entryY=1;entryDx=0;entryDy=0;entryPerimeter=0;" edge="1" parent="1" source="zJ-vD3GsJtSzr9R6O9Sf-6" target="zJ-vD3GsJtSzr9R6O9Sf-1">
          <mxGeometry width="50" height="50" relative="1" as="geometry">
            <mxPoint x="310" y="770" as="sourcePoint" />
            <mxPoint x="360" y="720" as="targetPoint" />
          </mxGeometry>
        </mxCell>
        <mxCell id="zJ-vD3GsJtSzr9R6O9Sf-12" value="" style="endArrow=none;html=1;rounded=0;entryX=0.392;entryY=0.983;entryDx=0;entryDy=0;entryPerimeter=0;" edge="1" parent="1" source="zJ-vD3GsJtSzr9R6O9Sf-4" target="zJ-vD3GsJtSzr9R6O9Sf-1">
          <mxGeometry width="50" height="50" relative="1" as="geometry">
            <mxPoint x="310" y="770" as="sourcePoint" />
            <mxPoint x="360" y="720" as="targetPoint" />
          </mxGeometry>
        </mxCell>
        <mxCell id="zJ-vD3GsJtSzr9R6O9Sf-13" value="" style="endArrow=none;html=1;rounded=0;entryX=0.067;entryY=1.033;entryDx=0;entryDy=0;entryPerimeter=0;" edge="1" parent="1" source="zJ-vD3GsJtSzr9R6O9Sf-3" target="zJ-vD3GsJtSzr9R6O9Sf-1">
          <mxGeometry width="50" height="50" relative="1" as="geometry">
            <mxPoint x="310" y="770" as="sourcePoint" />
            <mxPoint x="360" y="720" as="targetPoint" />
          </mxGeometry>
        </mxCell>
        <mxCell id="zJ-vD3GsJtSzr9R6O9Sf-15" value="SWITCH" style="rounded=0;whiteSpace=wrap;html=1;" vertex="1" parent="1">
          <mxGeometry x="600" y="370" width="120" height="60" as="geometry" />
        </mxCell>
        <mxCell id="zJ-vD3GsJtSzr9R6O9Sf-16" value="PC!" style="whiteSpace=wrap;html=1;aspect=fixed;" vertex="1" parent="1">
          <mxGeometry x="560" y="500" width="80" height="80" as="geometry" />
        </mxCell>
        <mxCell id="zJ-vD3GsJtSzr9R6O9Sf-17" value="PC2" style="whiteSpace=wrap;html=1;aspect=fixed;" vertex="1" parent="1">
          <mxGeometry x="680" y="510" width="80" height="80" as="geometry" />
        </mxCell>
        <mxCell id="zJ-vD3GsJtSzr9R6O9Sf-18" value="PC3" style="whiteSpace=wrap;html=1;aspect=fixed;" vertex="1" parent="1">
          <mxGeometry x="780" y="500" width="80" height="80" as="geometry" />
        </mxCell>
        <mxCell id="zJ-vD3GsJtSzr9R6O9Sf-19" value="PC3!" style="whiteSpace=wrap;html=1;aspect=fixed;" vertex="1" parent="1">
          <mxGeometry x="910" y="480" width="80" height="80" as="geometry" />
        </mxCell>
        <mxCell id="zJ-vD3GsJtSzr9R6O9Sf-20" value="" style="endArrow=none;html=1;rounded=0;entryX=0.625;entryY=1.05;entryDx=0;entryDy=0;entryPerimeter=0;" edge="1" parent="1" target="zJ-vD3GsJtSzr9R6O9Sf-15" source="zJ-vD3GsJtSzr9R6O9Sf-18">
          <mxGeometry width="50" height="50" relative="1" as="geometry">
            <mxPoint x="380" y="500" as="sourcePoint" />
            <mxPoint x="330" y="480" as="targetPoint" />
          </mxGeometry>
        </mxCell>
        <mxCell id="zJ-vD3GsJtSzr9R6O9Sf-21" value="" style="endArrow=none;html=1;rounded=0;entryX=0.95;entryY=1;entryDx=0;entryDy=0;entryPerimeter=0;" edge="1" parent="1" source="zJ-vD3GsJtSzr9R6O9Sf-19" target="zJ-vD3GsJtSzr9R6O9Sf-15">
          <mxGeometry width="50" height="50" relative="1" as="geometry">
            <mxPoint x="320" y="780" as="sourcePoint" />
            <mxPoint x="370" y="730" as="targetPoint" />
          </mxGeometry>
        </mxCell>
        <mxCell id="zJ-vD3GsJtSzr9R6O9Sf-22" value="" style="endArrow=none;html=1;rounded=0;entryX=0.392;entryY=0.983;entryDx=0;entryDy=0;entryPerimeter=0;" edge="1" parent="1" source="zJ-vD3GsJtSzr9R6O9Sf-17" target="zJ-vD3GsJtSzr9R6O9Sf-15">
          <mxGeometry width="50" height="50" relative="1" as="geometry">
            <mxPoint x="320" y="780" as="sourcePoint" />
            <mxPoint x="370" y="730" as="targetPoint" />
          </mxGeometry>
        </mxCell>
        <mxCell id="zJ-vD3GsJtSzr9R6O9Sf-23" value="" style="endArrow=none;html=1;rounded=0;entryX=0.067;entryY=1.033;entryDx=0;entryDy=0;entryPerimeter=0;" edge="1" parent="1" source="zJ-vD3GsJtSzr9R6O9Sf-16" target="zJ-vD3GsJtSzr9R6O9Sf-15">
          <mxGeometry width="50" height="50" relative="1" as="geometry">
            <mxPoint x="320" y="780" as="sourcePoint" />
            <mxPoint x="370" y="730" as="targetPoint" />
          </mxGeometry>
        </mxCell>
        <mxCell id="zJ-vD3GsJtSzr9R6O9Sf-25" value="switch" style="rounded=0;whiteSpace=wrap;html=1;" vertex="1" parent="1">
          <mxGeometry x="440" y="180" width="120" height="60" as="geometry" />
        </mxCell>
        <mxCell id="zJ-vD3GsJtSzr9R6O9Sf-26" value="" style="endArrow=none;html=1;rounded=0;exitX=0.617;exitY=-0.033;exitDx=0;exitDy=0;exitPerimeter=0;" edge="1" parent="1" source="zJ-vD3GsJtSzr9R6O9Sf-1" target="zJ-vD3GsJtSzr9R6O9Sf-25">
          <mxGeometry width="50" height="50" relative="1" as="geometry">
            <mxPoint x="400" y="430" as="sourcePoint" />
            <mxPoint x="450" y="380" as="targetPoint" />
          </mxGeometry>
        </mxCell>
        <mxCell id="zJ-vD3GsJtSzr9R6O9Sf-27" value="" style="endArrow=none;html=1;rounded=0;entryX=0.583;entryY=1;entryDx=0;entryDy=0;entryPerimeter=0;" edge="1" parent="1" target="zJ-vD3GsJtSzr9R6O9Sf-25">
          <mxGeometry width="50" height="50" relative="1" as="geometry">
            <mxPoint x="640" y="360" as="sourcePoint" />
            <mxPoint x="450" y="380" as="targetPoint" />
          </mxGeometry>
        </mxCell>
      </root>
    </mxGraphModel>
  </diagram>
</mxfile>
